<?xml version="1.0" standalone="no"?>
<!DOCTYPE svg PUBLIC "-//W3C//DTD SVG 20010904//EN"
 "http://www.w3.org/TR/2001/REC-SVG-20010904/DTD/svg10.dtd">
<svg version="1.0" xmlns="http://www.w3.org/2000/svg"
 width="200.000000pt" height="200.000000pt" viewBox="0 0 200.000000 200.000000"
 preserveAspectRatio="xMidYMid meet">
<metadata>
Created by potrace 1.14, written by Peter Selinger 2001-2017
</metadata>
<g transform="translate(0.000000,200.000000) scale(0.100000,-0.100000)"
fill="#000000" stroke="none">
<path d="M335 1968 c-49 -36 -75 -79 -75 -126 0 -20 -5 -55 -10 -77 -15 -59
-13 -165 5 -214 12 -35 13 -54 3 -109 -11 -71 1 -152 24 -152 6 0 36 -11 67
-25 l57 -26 47 20 c51 22 63 45 54 109 -3 27 -18 52 -51 87 -25 28 -47 57 -47
65 -1 8 -2 31 -4 50 -4 52 12 85 58 123 70 57 80 60 118 34 37 -25 68 -72 70
-108 2 -29 -10 -110 -18 -123 -10 -15 -5 -259 5 -286 5 -14 8 -88 6 -165 -1
-91 2 -152 10 -175 7 -20 9 -48 5 -62 -4 -15 -10 -49 -14 -76 -6 -46 -4 -52
23 -80 16 -16 45 -37 64 -46 32 -15 36 -22 42 -69 7 -51 6 -53 -28 -82 -44
-37 -47 -69 -11 -157 14 -34 23 -70 20 -79 -6 -18 -58 -45 -149 -80 -59 -22
-98 -53 -90 -72 8 -21 56 -44 102 -50 51 -5 155 13 197 35 17 9 51 15 80 14
28 -1 67 4 87 11 43 14 66 11 101 -12 48 -31 159 -65 213 -65 42 0 59 5 76 22
l22 22 -24 15 c-13 9 -50 37 -81 63 -65 55 -65 58 -15 175 14 34 26 66 26 71
0 4 -14 22 -31 39 -16 18 -30 40 -29 50 1 46 13 113 19 113 3 1 17 10 31 21
31 26 37 80 26 234 -11 148 -11 146 8 250 2 11 -1 26 -7 33 -6 8 -6 32 2 71
20 101 16 218 -11 316 -16 58 -12 83 23 140 45 74 121 111 154 75 10 -11 28
-20 40 -20 38 0 48 -24 43 -95 -7 -75 -17 -91 -67 -105 -34 -9 -79 -59 -65
-72 2 -3 -2 -10 -10 -17 -11 -9 -12 -19 -3 -47 15 -49 34 -58 148 -70 52 -6
58 -5 72 17 8 13 18 40 22 59 4 19 20 65 36 102 62 142 80 278 48 355 -10 23
-21 58 -25 77 -5 28 -16 42 -52 66 -51 34 -45 33 -162 31 -62 -1 -94 -7 -121
-20 -20 -11 -58 -22 -85 -25 -27 -3 -66 -8 -86 -12 -22 -3 -38 -2 -38 4 0 9
-42 30 -71 36 -8 1 -33 8 -57 15 -61 17 -139 7 -198 -25 -74 -40 -152 -41
-225 -3 -50 25 -69 29 -156 32 -95 3 -101 2 -138 -25z m691 -1203 c0 -11 -3
-27 -7 -36 -4 -8 -4 -21 1 -29 5 -8 4 -22 -1 -32 -8 -14 -3 -28 20 -61 17 -23
34 -57 37 -75 6 -29 3 -37 -22 -58 -51 -41 -89 -25 -127 54 -18 37 -14 53 19
89 21 22 22 27 10 61 -7 20 -11 44 -8 52 19 58 22 61 50 58 19 -2 27 -9 28
-23z"/>
</g>
</svg>
