<?xml version="1.0" encoding="utf-8"?>
<!DOCTYPE svg PUBLIC "-//W3C//DTD SVG 1.1//EN" "http://www.w3.org/Graphics/SVG/1.1/DTD/svg11.dtd">
<!-- exported from Silhouette Studio® Business Edition V4.5.152ssbe -->
<svg version="1.1" xmlns="http://www.w3.org/2000/svg" xmlns:xlink="http://www.w3.org/1999/xlink" width="50.80001mm" height="47mm" viewBox="0 0 50.80001 47">
<defs>
<path id="path_b5ed484d2711481847cf494f0d78f09d" d="M 17.05328 46.11996 C 15.77715 46.07737 14.39105 45.86694 13.23294 45.53989 C 12.00129 45.19207 10.97497 44.72718 10.00199 44.07638 C 9.403502 43.67603 9.126455 43.42387 8.998016 43.16251 L 8.898002 42.95901 L 8.898 38.45689 L 8.898 33.95475 L 9.017061 33.71311 C 9.154922 33.43329 9.388139 33.22886 10.10883 32.7561 C 12.55716 31.15005 16.24593 30.45392 19.86745 30.91451 C 21.52294 31.12506 22.98999 31.56202 24.30858 32.2373 C 25.11187 32.64867 26.01302 33.26904 26.20045 33.53965 C 26.41269 33.84612 26.40157 33.57426 26.40157 38.45577 C 26.40157 42.54173 26.39643 42.94371 26.34205 43.1039 C 26.2685 43.32061 25.979 43.61858 25.54205 43.92741 C 23.96459 45.04216 21.99442 45.74126 19.65299 46.0171 C 19.15368 46.07591 17.89943 46.14698 17.55185 46.13612 C 17.43433 46.13245 17.20997 46.12515 17.05328 46.11996 Z M 18.74349 41.8314 C 18.81306 41.75678 18.8161 41.71085 18.8161 40.73264 C 18.8161 39.82693 18.82273 39.7063 18.87493 39.66296 C 18.92109 39.62464 19.15397 39.61186 19.95696 39.60371 C 20.89661 39.59415 20.98501 39.58794 21.03933 39.52799 C 21.0921 39.46972 21.09734 39.35249 21.08799 38.44102 L 21.0775 37.41933 L 20.99342 37.35133 C 20.91509 37.28802 20.84052 37.28336 19.90269 37.28336 C 19.01038 37.28336 18.89049 37.27668 18.84716 37.22462 C 18.80914 37.1789 18.79434 36.93365 18.78048 36.12012 C 18.76554 35.24277 18.75408 35.06902 18.70926 35.04078 C 18.67895 35.02166 18.21806 35.00682 17.64369 35.00654 C 16.75136 35.00603 16.62383 35.01295 16.56641 35.06486 C 16.50626 35.11927 16.50128 35.20022 16.50128 36.12447 C 16.50128 36.97261 16.49283 37.13722 16.44584 37.20426 C 16.39084 37.28271 16.38272 37.28336 15.41073 37.28336 C 14.44611 37.28336 14.3215 37.29635 14.24933 37.40435 C 14.23494 37.42588 14.22292 37.90137 14.22262 38.46101 C 14.22212 39.39164 14.22749 39.48344 14.28543 39.53582 C 14.33998 39.58517 14.49142 39.59456 15.37452 39.6036 C 16.34221 39.61353 16.40313 39.61801 16.45078 39.6832 C 16.49155 39.73897 16.50128 39.94618 16.50128 40.75961 C 16.50128 41.71949 16.50463 41.7703 16.57251 41.83813 C 16.6404 41.90595 16.69122 41.90929 17.6573 41.90929 C 18.65412 41.90929 18.67207 41.908 18.74349 41.8314 Z M 12.08533 29.86012 C 11.8258 29.8284 11.43711 29.73163 11.22771 29.64661 C 10.37786 29.30157 9.949891 28.70839 9.394941 27.10632 C 9.07054 26.16984 8.941318 25.87177 8.702768 25.50973 C 8.077623 24.561 7.227499 24.19081 5.425769 24.08278 C 4.632104 24.03519 4.444808 24.00468 4.203788 23.88371 C 3.451564 23.5062 3.253536 22.95542 3.253304 21.24009 C 3.253191 20.40529 3.212683 19.99618 3.087344 19.56384 C 2.961667 19.13035 2.802957 18.8546 2.357342 18.2955 C 0.961167 16.54375 0.4856651 15.71805 0.2207723 14.58537 C 0.1166701 14.14022 0.0908602 13.13609 0.1697143 12.59903 C 0.2795628 11.85087 0.4556333 11.31911 0.7654624 10.7998 C 1.188238 10.09117 1.530746 9.716339 3.369601 7.949875 C 4.521145 6.84367 4.873145 6.421261 5.495135 5.399197 C 7.150928 2.678371 8.584033 1.367348 10.64302 0.6898575 C 11.4262 0.4321556 12.17907 0.303257 13.2863 0.2373047 C 14.59145 0.159565 15.29097 0.3264847 15.8037 0.8380089 C 16.1758 1.209217 16.36639 1.73568 16.42992 2.567741 C 16.45056 2.838081 16.46501 4.610004 16.46434 6.787857 C 16.46309 10.84148 16.46224 10.86163 16.2739 11.28464 C 16.04016 11.80961 15.56758 12.29116 14.68286 12.90585 C 13.52427 13.71085 13.23992 13.92794 12.88523 14.27829 C 12.24064 14.915 11.93081 15.50174 11.84098 16.25589 C 11.79232 16.66433 11.8557 25.66957 11.90861 25.86591 C 12.03131 26.3212 12.33035 26.59328 12.85827 26.72997 C 13.83567 26.98303 14.76905 26.29375 15.83532 24.53145 C 16.45023 23.51516 16.65927 22.95174 16.65575 22.32028 C 16.6518 21.61261 16.40117 21.15437 15.38093 19.98953 C 14.47238 18.9522 14.21264 18.47472 14.11582 17.6639 C 14.02621 16.91346 14.23031 16.22657 14.65746 15.84097 C 15.18061 15.36872 16.63337 15.04021 17.9792 15.08982 C 19.24549 15.1365 20.43575 15.47697 20.86095 15.91411 C 21.20712 16.27 21.36475 16.78854 21.33182 17.46306 C 21.28548 18.41205 21.05268 18.83837 19.77728 20.30978 C 18.99108 21.21681 18.75622 21.72865 18.78943 22.46261 C 18.81536 23.0353 19.01919 23.55573 19.5908 24.50869 C 20.00271 25.19542 20.32806 25.63224 20.71923 26.02372 C 21.2878 26.59275 21.74297 26.816 22.25093 26.77501 C 22.90138 26.7225 23.36928 26.41432 23.52118 25.93837 C 23.56578 25.79865 23.6403 18.39266 23.61219 16.89371 C 23.59609 16.03505 23.54739 15.77374 23.31849 15.318 C 22.94031 14.56507 22.46779 14.09698 21.20214 13.22147 C 20.26752 12.57496 20.07306 12.42466 19.74068 12.09185 C 19.40684 11.75759 19.22247 11.48258 19.09522 11.1291 L 19.01197 10.89781 L 19.00162 6.841232 C 18.9894 2.05246 18.99228 2.00174 19.31632 1.322487 C 19.73469 0.4455109 20.52561 0.142334 22.1482 0.2369728 C 25.31897 0.4219093 27.25421 1.492023 29.12446 4.094585 C 29.27654 4.306194 29.60099 4.802593 29.8455 5.197689 C 30.62292 6.453918 30.97014 6.880516 32.07158 7.932598 C 34.18209 9.948544 34.45918 10.26581 34.88536 11.15446 C 35.21667 11.84528 35.36362 12.67371 35.32988 13.66066 C 35.30054 14.52017 35.15793 15.07195 34.75641 15.87957 C 34.40617 16.58406 33.98063 17.20762 33.11935 18.27837 C 32.33172 19.25755 32.25259 19.5204 32.20783 21.30614 C 32.17621 22.56782 32.1439 22.81096 31.95456 23.2125 C 31.82545 23.48631 31.53523 23.7649 31.23083 23.90723 C 30.98763 24.02095 30.8469 24.04169 29.82002 24.11512 C 28.59816 24.2025 27.87067 24.4327 27.28131 24.91845 C 26.76826 25.34129 26.52108 25.78925 26.04457 27.15971 C 25.75776 27.98458 25.60199 28.34102 25.37122 28.70049 C 25.01952 29.24831 24.54552 29.59451 23.89088 29.78172 C 23.64559 29.85186 23.52429 29.86317 23.01837 29.86306 C 22.44611 29.86294 22.42194 29.85987 22.09298 29.74574 C 21.44278 29.52015 20.96615 29.19731 19.96213 28.3024 C 19.22525 27.64561 18.9826 27.46278 18.58462 27.26445 C 18.15493 27.05032 17.81989 26.99838 17.4094 27.08225 C 16.85712 27.19509 16.45272 27.45411 15.48632 28.31402 C 14.16196 29.49242 13.52822 29.83266 12.60171 29.86265 C 12.38625 29.86962 12.15388 29.86848 12.08533 29.86012 Z" fill-rule="evenodd" fill="#000000" fill-opacity="1" stroke="#000000" stroke-opacity="1" stroke-width="0" stroke-linecap="round" stroke-linejoin="round"/>
<path id="path_18108d8e0770b99a701a5dc32a67ab48" d="M 50.0496 12.63418 C 51.3559 12.48513 50.68201 3.789055 44.39317 3.691799 C 37.63694 3.587315 36.34707 18.92848 35.2836 24.21481 C 33.35407 33.80608 28.09553 41.41638 28.51349 42.81962 C 29.25658 44.52527 38.72752 39.75117 40.3204 36.49253 C 43.047 30.9146 43.95634 14.37966 46.05947 11.17402 C 46.82484 10.00742 48.82768 12.92823 50.0496 12.63418 Z" fill-rule="evenodd" fill="#000000" fill-opacity="1" stroke="#000000" stroke-opacity="1" stroke-width="0" stroke-linecap="round" stroke-linejoin="round"/>
<path id="path_f4270bc33815979f0f83f063d26c36b3" d="M 49.25559 6.769756 C 47.76654 4.704437 44.96109 4.696239 43.59101 5.454716 C 38.43547 8.308826 38.09489 27.38415 34.29313 34.1348 C 32.61231 37.11938 32.42289 37.50394 31.31077 40.46133 C 32.74469 39.33 33.39576 39.9738 36.51032 35.01402 C 39.36326 30.47087 40.39864 11.55178 44.75449 6.603294 C 45.55303 5.69611 47.39093 6.029831 49.25559 6.769756 Z" fill-rule="evenodd" fill="#FFFFFF" fill-opacity="1" stroke="#FFFFFF" stroke-opacity="1" stroke-width="0" stroke-linecap="round" stroke-linejoin="round"/>
</defs>
<g>
<g>
<g>
<use xlink:href="#path_b5ed484d2711481847cf494f0d78f09d"/>
</g>
</g>
<g>
<use xlink:href="#path_18108d8e0770b99a701a5dc32a67ab48"/>
</g>
<g>
<use xlink:href="#path_f4270bc33815979f0f83f063d26c36b3"/>
</g>
</g>
</svg>