<?xml version="1.0" encoding="utf-8"?>
<!DOCTYPE svg PUBLIC "-//W3C//DTD SVG 1.1//EN" "http://www.w3.org/Graphics/SVG/1.1/DTD/svg11.dtd">
<!-- exported from Silhouette Studio® Business Edition V4.4.945ssbe -->
<svg version="1.1" xmlns="http://www.w3.org/2000/svg" xmlns:xlink="http://www.w3.org/1999/xlink" width="50.80001mm" height="66.24322mm" viewBox="0 0 50.80001 66.24322">
<defs>
<path id="path_f246dd722d934504367e3dd5a92b6f69" d="M 24.42421 66.22057 C 22.58316 66.15913 20.58344 65.85553 18.91265 65.38371 C 17.13576 64.8819 15.6551 64.21121 14.25139 63.2723 C 13.38796 62.69474 12.98827 62.33094 12.80297 61.95388 L 12.65868 61.6603 L 12.65868 55.16512 L 12.65868 48.66995 L 12.83045 48.32133 C 13.02934 47.91764 13.3658 47.62272 14.40553 46.94067 C 17.93771 44.62365 23.25947 43.61935 28.4842 44.28384 C 30.87255 44.58759 32.98904 45.21798 34.89136 46.19219 C 36.05026 46.78569 37.35034 47.68067 37.62074 48.07108 C 37.92694 48.51323 37.9109 48.12103 37.9109 55.16353 C 37.9109 61.0583 37.90347 61.63822 37.82502 61.86933 C 37.71891 62.18196 37.30125 62.61184 36.67087 63.05738 C 34.39508 64.66563 31.55274 65.67422 28.17479 66.07217 C 27.45444 66.15702 25.64494 66.25954 25.1435 66.24387 C 24.97395 66.23859 24.65027 66.22807 24.42421 66.22057 Z M 26.86266 60.0335 C 26.96303 59.92585 26.96741 59.85958 26.96741 58.44834 C 26.96741 57.14166 26.97699 56.96764 27.05228 56.90511 C 27.11889 56.84983 27.45486 56.8314 28.61333 56.81964 C 29.96895 56.80584 30.09648 56.7969 30.17484 56.7104 C 30.25097 56.62632 30.25854 56.45721 30.24504 55.14223 L 30.22991 53.66826 L 30.10861 53.57016 C 29.99561 53.47883 29.88803 53.47211 28.53503 53.47211 C 27.24771 53.47211 27.07474 53.46246 27.01223 53.38735 C 26.95738 53.32139 26.93602 52.96759 26.91603 51.79392 C 26.89448 50.52816 26.87794 50.2775 26.81328 50.23674 C 26.76955 50.20917 26.10463 50.18776 25.27599 50.18735 C 23.98863 50.18663 23.80465 50.19659 23.72181 50.27149 C 23.63503 50.34998 23.62785 50.46677 23.62785 51.80019 C 23.62785 53.0238 23.61566 53.26128 23.54787 53.35799 C 23.46852 53.47118 23.45681 53.47211 22.05453 53.47211 C 20.66288 53.47211 20.4831 53.49084 20.37899 53.64664 C 20.35822 53.6777 20.34089 54.36369 20.34045 55.17108 C 20.33973 56.51369 20.34748 56.64613 20.43107 56.72169 C 20.50976 56.7929 20.72824 56.80645 22.00229 56.81949 C 23.39836 56.83381 23.48625 56.84027 23.55499 56.93432 C 23.61382 57.01477 23.62785 57.31374 23.62785 58.48725 C 23.62785 59.87206 23.63269 59.94536 23.73061 60.04321 C 23.82855 60.14105 23.90187 60.14588 25.29563 60.14588 C 26.73373 60.14588 26.75963 60.14402 26.86266 60.0335 Z M 17.257 42.76266 C 16.88259 42.71691 16.32182 42.57731 16.01973 42.45466 C 14.79366 41.95686 14.17623 41.10109 13.37561 38.78981 C 12.9076 37.43875 12.72117 37.00872 12.37702 36.48642 C 11.47513 35.11769 10.24867 34.58363 7.649333 34.42777 C 6.504322 34.35911 6.234112 34.3151 5.886395 34.14058 C 4.801168 33.59594 4.515475 32.80135 4.515141 30.32665 C 4.514978 29.1223 4.456537 28.53207 4.275712 27.90835 C 4.094398 27.28296 3.86543 26.88514 3.222545 26.07853 C 1.208299 23.5513 0.5222979 22.36007 0.1401401 20.72596 C -0.010047 20.08375 -0.0472827 18.6351 0.0664792 17.86029 C 0.2249565 16.78092 0.4789715 16.01377 0.9259586 15.26456 C 1.535892 14.24222 2.030024 13.70146 4.68292 11.153 C 6.34424 9.557091 6.852068 8.947687 7.749405 7.473165 C 10.1382 3.547862 12.20572 1.656466 15.1762 0.6790547 C 16.30609 0.3072705 17.39224 0.1213131 18.98963 0.0261655 C 20.87255 -0.0859904 21.88174 0.1548204 22.62146 0.8927951 C 23.15828 1.428329 23.43324 2.187852 23.5249 3.388258 C 23.55468 3.778272 23.57553 6.334606 23.57456 9.476574 C 23.57276 15.32469 23.57153 15.35376 23.29981 15.96403 C 22.9626 16.7214 22.28081 17.41612 21.00444 18.30294 C 19.33295 19.4643 18.92272 19.7775 18.41102 20.28295 C 17.48107 21.20152 17.03409 22.048 16.90448 23.13601 C 16.83429 23.72526 16.92572 36.71702 17.00206 37.00027 C 17.17907 37.65711 17.61049 38.04964 18.37212 38.24684 C 19.7822 38.61193 21.12877 37.61751 22.66707 35.07507 C 23.5542 33.60887 23.85579 32.79603 23.85071 31.88503 C 23.84501 30.86409 23.48342 30.20299 22.01154 28.52248 C 20.70078 27.02594 20.32606 26.33708 20.18638 25.16732 C 20.0571 24.08468 20.35155 23.0937 20.96779 22.5374 C 21.72253 21.85609 23.81842 21.38215 25.76003 21.45372 C 27.58689 21.52107 29.30407 22.01226 29.9175 22.64292 C 30.41692 23.15636 30.64433 23.90446 30.59682 24.87758 C 30.52997 26.24667 30.19411 26.86172 28.35411 28.98451 C 27.21986 30.29307 26.88103 31.03149 26.92895 32.09037 C 26.96635 32.91658 27.26042 33.66741 28.08507 35.04223 C 28.67933 36.03297 29.14871 36.66316 29.71305 37.22795 C 30.53332 38.04888 31.18998 38.37096 31.92282 38.31181 C 32.86121 38.23606 33.53624 37.79146 33.75539 37.1048 C 33.81973 36.90324 33.92723 26.21871 33.88668 24.05619 C 33.86346 22.8174 33.79319 22.44041 33.46296 21.78293 C 32.91736 20.69667 32.23568 20.02136 30.40973 18.75828 C 29.06136 17.82556 28.78082 17.60872 28.3013 17.12858 C 27.81967 16.64635 27.55368 16.2496 27.37011 15.73964 L 27.24999 15.40596 L 27.23506 9.553576 C 27.21743 2.644869 27.22159 2.571692 27.68908 1.591743 C 28.29265 0.32654 29.4337 -0.1108494 31.7746 0.0256839 C 36.34904 0.2924891 39.14098 1.836332 41.83918 5.591019 C 42.05857 5.896307 42.52666 6.612456 42.87941 7.182456 C 44.00098 8.994802 44.50192 9.610251 46.09095 11.12808 C 49.13576 14.03646 49.53551 14.49417 50.15035 15.77622 C 50.62833 16.77286 50.84033 17.96803 50.79166 19.39189 C 50.74932 20.63189 50.54358 21.42795 49.96431 22.59309 C 49.45902 23.60945 48.84511 24.50905 47.60255 26.05381 C 46.46624 27.46645 46.35208 27.84568 46.28751 30.42194 C 46.24189 32.24216 46.19529 32.59292 45.92213 33.17223 C 45.73586 33.56725 45.31717 33.96917 44.87801 34.17451 C 44.52715 34.33857 44.32413 34.36848 42.84266 34.47443 C 41.07989 34.60049 40.03036 34.93259 39.18008 35.63338 C 38.43992 36.24341 38.08332 36.88967 37.39586 38.86682 C 36.98207 40.05686 36.75735 40.57109 36.42442 41.08969 C 35.91702 41.88003 35.2332 42.37948 34.28875 42.64956 C 33.93487 42.75076 33.75988 42.76707 33.02999 42.76691 C 32.2044 42.76674 32.16953 42.76231 31.69494 42.59766 C 30.75691 42.27221 30.06928 41.80644 28.62078 40.51537 C 27.5577 39.56783 27.20764 39.30406 26.63346 39.01793 C 26.01356 38.70901 25.5302 38.63408 24.93799 38.75508 C 24.14122 38.91787 23.5578 39.29155 22.16358 40.53213 C 20.25294 42.2322 19.33865 42.72306 18.00198 42.76633 C 17.69114 42.77639 17.3559 42.77474 17.257 42.76266 Z" fill-rule="evenodd" fill="#000000" fill-opacity="1" stroke="#000000" stroke-opacity="1" stroke-width="0.1" stroke-linecap="round" stroke-linejoin="round"/>
</defs>
<g>
<g>
<g>
<use xlink:href="#path_f246dd722d934504367e3dd5a92b6f69"/>
</g>
</g>
</g>
</svg>